# xmcd
#
# Track frame offsets:
#	150
#	23965
#	42250
#	58120
#	80835
#	95495
#	109065
#	122255
#	138345
#	158280
#	181135
#	198195
#
# Disc length: 2922 seconds
#
# Revision: 0
# Processed by: cddbd v1.5.2PL0 Copyright (c) Steve Scherf et al.
# Submitted via: dBpowerAMP V4.0
#
DISCID=920b680c
DTITLE=AMIGOS - Amigos - vol. 1 ( Ao Vivo )
DYEAR=1996
DGENRE=Sertanejo
TTITLE0=Disparada  ( AMIGOS )
TTITLE1=Menina veneno  ( Zezé and Luciano )
TTITLE2=Bailão de peão  ( Ch and X )
TTITLE3=Eu juro  ( I swear )  ( Leandro and Leonardo )
TTITLE4=Noite feliz  ( AMIGOS )
TTITLE5=Ave Maria  ( AMIGOS )
TTITLE6=Fio de cabelo  ( Zezé and Ch )
TTITLE7=É o amor  ( Luciano and Leonardo )
TTITLE8=Temporal de amor  ( Leandro and Xororó )
TTITLE9=Um homem quando ama  ( Have you ever really loved a woman )  ( Ch and X )
TTITLE10=Pão de mel  ( Zezé and Luciano )
TTITLE11=Festa de rodeio  ( Leandro and Leonardo )
EXTD=
EXTT0=
EXTT1=
EXTT2=
EXTT3=
EXTT4=
EXTT5=
EXTT6=
EXTT7=
EXTT8=
EXTT9=
EXTT10=
EXTT11=
PLAYORDER=
